# xmcd CD database file
#
# Track frame offsets:
#	150
#	13560
#	29144
#	43691
#	57288
#
# Disc length: 1015 seconds
#
# Revision: 0
# Processed by: cddbd v1.5.2PL0 Copyright (c) Steve Scherf et al.
# Submitted via: CDex 1.51
#
DISCID=3d03f505
DTITLE=Chuck Wagon and The Gravy Train - Chuck Wagon and The Gravy Train
DYEAR=2006
DGENRE=Country
TTITLE0=Stay Gone
TTITLE1=Bottles
TTITLE2=Sour Times
TTITLE3=Darlene
TTITLE4=Living Alone
EXTD=YEAR: 2006
EXTT0=
EXTT1=
EXTT2=
EXTT3=
EXTT4=
PLAYORDER=
